#!OML:ASF E:/inclinewalkrobotboard/Project1/Captureday1/Session1/subject1.ASF
:FULLY-SPECIFIED
:DEGREES
88
root 0 0 0 -0.39493860655107094 -2.0214595110995472 -3.8745777787203415
lowerback 16.395693732131743 1.1269565451111614 -0.09807334513282773
upperback 0.7376911388834108 1.480976142810664 0.3378045450745125
thorax -8.478634892110705 0.7028227557981955 0.04967053987031733
lowerneck -7.455358690260527 -3.2854182576252624 1.222631909024515
upperneck -5.229311221819202 -4.281780189754694 1.8216161382961136
head -0.48078163326982715 -2.2062732311851643 0.26817585263592675
rclavicle -3.761936399060898E-16 1.4419474272825692E-17
rhumerus 11.992264389469902 0.4525090001562333 -39.5392614489386
rradius 118.5530090271597
rwrist -30.706397831714074
rhand -11.693955110068254 -36.4347060401919
rfingers 7.125019999999963
rthumb 14.390232465503466 -65.85403410962522
lclavicle -4.266341051247524E-16 -4.76721352398339E-16
lhumerus -43.17223027365139 -0.3975740047796511 83.12448888076351
lradius 45.04028844043338
lwrist 2.0359672522450754
lhand -15.776291612788304 -11.602639423052262
lfingers 7.125019999999929
lthumb 10.375032681777125 17.512891015019
rfemur -2.843337042240119 1.0586730551198067 5.686793713847013
rtibia 8.511646360064663
rfoot -1.6039384226245152 -1.3883303265825218
rtoes 0.8154865322088165
lfemur -6.534621401420305 -3.5560345695211346 -12.278835715040513
ltibia 27.447488972380924
lfoot -19.187398763474445 7.901250496586508
ltoes -43.07504694051113
89
root 0 0 0 -0.39662239198103266 -2.0211199464753573 -3.8748152934656575
lowerback 16.398225830708068 1.1295835258835332 -0.09695515918785835
upperback 0.7379896988498535 1.4847620830487107 0.33712580407698556
thorax -8.479222060239582 0.7045833842901054 0.047804150292205416
lowerneck -7.460313929897453 -3.289296528515272 1.2178921052341893
upperneck -5.22401600841885 -4.28761896624421 1.8265448199191996
head -0.47802049721232365 -2.2086667275211407 0.26982352131232956
rclavicle -3.7554406242654383E-16 1.3653302753859415E-17
rhumerus 11.992690102328531 0.4315549832101322 -39.545903606162106
rradius 118.52043734881936
rwrist -30.69065930460232
rhand -11.703347188426642 -36.3875683970918
rfingers 7.125019999999963
rthumb 14.381643600500418 -65.8081168932042
lclavicle -4.280360137548681E-16 -4.763002729910669E-16
lhumerus -43.16715962234842 -0.3968995290116495 83.1246879452898
lradius 45.03154193052117
lwrist 2.036410304338083
lhand -15.781096473645698 -11.58788463113302
lfingers 7.125019999999928
lthumb 10.37062845378461 17.52697264589227
rfemur -2.837185740799849 1.0565156471214714 5.675211431502619
rtibia 8.494360042945372
rfoot -1.5998578510177244 -1.3851132993300785
rtoes 0.8143465271819421
lfemur -6.536944169565335 -3.554502472694827 -12.283606588163336
ltibia 27.452509430625884
lfoot -19.178762242946974 7.893920437224715
ltoes -43.0504575484432
90
root 0 0 0 -0.3960580916524514 -2.021816790847455 -3.873953735537396
lowerback 16.402007075762135 1.1260376772583727 -0.09923338336389309
upperback 0.7354739337827136 1.4796863859648504 0.33752773765294697
thorax -8.484358538504893 0.7021131567785837 0.04997363191258741
lowerneck -7.45976678755129 -3.285594840517475 1.2241546158658991
upperneck -5.256434894887306 -4.281061961856429 1.8183384192124938
head -0.4887264193180174 -2.206406509791287 0.26710233335274325
rclavicle -3.770165823471125E-16 1.4008574396908802E-17
rhumerus 11.988752594752768 0.43911166004001423 -39.54596171624233
rradius 118.52838778363156
rwrist -30.69421673998825
rhand -11.699403563969362 -36.40520914804702
rfingers 7.125019999999963
rthumb 14.385093685430048 -65.82550083061659
lclavicle -4.257445050512839E-16 -4.765740545645379E-16
lhumerus -43.17469518269733 -0.39677414413191037 83.12488436428885
lradius 45.0422290836547
lwrist 2.0339838153498007
lhand -15.773764260966384 -11.610388653344293
lfingers 7.125019999999929
lthumb 10.377553857353968 17.505066711503282
rfemur -2.838777061034805 1.0568213398815682 5.67735902396665
rtibia 8.498781364887297
rfoot -1.6009178372756945 -1.3859581637850122
rtoes 0.8142402837782003
lfemur -6.535938683527885 -3.5550742210880255 -12.281856487225685
ltibia 27.450490431268094
lfoot -19.181817418345048 7.896342282485493
ltoes -43.05904226852463
91
root 0 0 0 -0.39548999065796875 -2.022135708528478 -3.874295424231324
lowerback 16.405010582874574 1.125049168983846 -0.09989724459970073
upperback 0.7338907055326455 1.4782162842889486 0.3373018516851005
thorax -8.487680863904789 0.7013873817406995 0.050150944493364547
lowerneck -7.458740461768694 -3.2844882990422644 1.2271447669122746
upperneck -5.27625431146005 -4.27905923611375 1.8155247190006043
head -0.495625216436931 -2.2058011254357437 0.26613391260187774
rclavicle -3.768433437393229E-16 1.422267915588296E-17
rhumerus 11.995045843426219 0.4450283774535073 -39.53919061084366
rradius 118.54591404779299
rwrist -30.70212293043956
rhand -11.697265362164611 -36.419661246572886
rfingers 7.125019999999963
rthumb 14.387104625431755 -65.83942984291572
lclavicle -4.2546480445493117E-16 -4.762635825541352E-16
lhumerus -43.17897707539879 -0.3968991241113077 83.1254766588485
lradius 45.048762779505296
lwrist 2.032099206477262
lhand -15.768893904281748 -11.625675244554047
lfingers 7.125019999999929
lthumb 10.382076220159853 17.490543711399944
rfemur -2.840963412772327 1.0577548053278647 5.682102920916844
rtibia 8.505177450621062
rfoot -1.6024434999398718 -1.3871243217057811
rtoes 0.8149412888972831
lfemur -6.534843534777058 -3.555880370078288 -12.27916725016129
ltibia 27.44805811068265
lfoot -19.186759840551968 7.90070652284154
ltoes -43.07342670351416
92
root 0 0 0 -0.3945439021519377 -2.0222006995071773 -3.8752867406104166
lowerback 16.40607476214483 1.125106778074092 -0.09977954950391188
upperback 0.7328926463621008 1.4782239037428657 0.3368669953245462
thorax -8.489275009961535 0.7013969337078613 0.049566795570445965
lowerneck -7.456425393786777 -3.2841352607519365 1.2288689974875577
upperneck -5.286683892132036 -4.278650249849557 1.8152445171955067
head -0.4996863655118844 -2.205686353335997 0.2659838340151295
rclavicle -3.7674546290115055E-16 1.4598695098205707E-17
rhumerus 12.004163349550709 0.4536876007117705 -39.529342876233315
rradius 118.57119639340269
rwrist -30.7138226795944
rhand -11.694141393292202 -36.440624582757835
rfingers 7.125019999999963
rthumb 14.39005413914774 -65.85981265775274
lclavicle -4.250193277122564E-16 -4.756726802728117E-16
lhumerus -43.18539321724571 -0.39673134450578706 83.12664599858383
lradius 45.05789800112838
lwrist 2.028583254162573
lhand -15.761467037444534 -11.64918277966137
lfingers 7.125019999999929
lthumb 10.389126891552284 17.468095018108826
rfemur -2.839640969553346 1.0573252122799046 5.679603286975416
rtibia 8.500886856577338
rfoot -1.6019274603189335 -1.3864972949269334
rtoes 0.814485918980171
lfemur -6.533081373774887 -3.557196885475394 -12.275074738358672
ltibia 27.444226351997344
lfoot -19.19417946110313 7.907186908687718
ltoes -43.09492989239088
93
root 0 0 0 -0.3937679971101413 -2.0222186833645672 -3.8762480782538478
lowerback 16.406697171406428 1.125398074760894 -0.09952902450867007
upperback 0.7319406670511143 1.4785826389590635 0.33642000318857845
thorax -8.490552919494496 0.7015684849949194 0.04887055133820606
lowerneck -7.454708643626608 -3.28408180508378 1.2300041386242895
upperneck -5.29446833891506 -4.278744040186189 1.8155093741956652
head -0.5027101303362658 -2.2057454272203065 0.2660176356084211
rclavicle -3.7672411958928005E-16 1.485580147032715E-17
rhumerus 12.010760948173647 0.4596542685159246 -39.522277750358455
rradius 118.58921519373612
rwrist -30.722041191590762
rhand -11.691996405906455 -36.45535898931452
rfingers 7.125019999999963
rthumb 14.392085887444242 -65.87410205923362
lclavicle -4.2447123802153487E-16 -4.750838031414052E-16
lhumerus -43.19178953326182 -0.3965036313291451 83.12779713882918
lradius 45.066859953051825
lwrist 2.0250257566600034
lhand -15.754084486331617 -11.672517245491935
lfingers 7.125019999999929
lthumb 10.39614704418901 17.44581636099779
rfemur -2.8375415695625126 1.0565611795213496 5.675431209458312
rtibia 8.494374242205708
rfoot -1.6008528519316747 -1.385468341172035
rtoes 0.813793109636233
lfemur -6.531228391406054 -3.558525777610519 -12.271029969596844
ltibia 27.440295896005775
lfoot -19.201604759040258 7.913647418285276
ltoes -43.11633834994506
94
root 0 0 0 -0.3955319625322239 -2.021852726794637 -3.876222950634452
lowerback 16.408259361450533 1.1278682290888766 -0.09848476028298936
upperback 0.7324243228638704 1.482157439718313 0.335900078603934
thorax -8.490434671886154 0.7032335181233644 0.04727969005553345
lowerneck -7.459917647472451 -3.287767932466133 1.225051498601017
upperneck -5.285331981561129 -4.284325787424363 1.8203396957482232
head -0.49857908621436664 -2.2079885624008706 0.2676441908488834
rclavicle -3.7603797734937703E-16 1.3985616534884353E-17
rhumerus 12.006860859783515 0.43669873355014666 -39.53297807994656
rradius 118.54788264035167
rwrist -30.702338424358384
rhand -11.701949701128177 -36.40300686418394
rfingers 7.125019999999963
rthumb 14.382964063164556 -65.82311901758747
lclavicle -4.2582426035551073E-16 -4.747407973972003E-16
lhumerus -43.186139596813 -0.3957800165561298 83.12783638338266
lradius 45.05713813005177
lwrist 2.0257716994770187
lhand -15.759620685541499 -11.655408019059916
lfingers 7.125019999999929
lthumb 10.391048901153756 17.462060431874356
rfemur -2.8300065660453413 1.0538097255331835 5.66084074671547
rtibia 8.472951801686657
rfoot -1.595819349743398 -1.3815215287412816
rtoes 0.812199725647677
lfemur -6.533387493171391 -3.5570750035147918 -12.275778622872247
ltibia 27.445067790225245
lfoot -19.19312389452607 7.906419044514546
ltoes -43.0919659719021
95
root 0 0 0 -0.3950974481545433 -2.0226020829970346 -3.8750028152626
lowerback 16.41214580710808 1.123879369998939 -0.10107359131766858
upperback 0.7298980199476489 1.4764562816089295 0.3364653051207549
thorax -8.495671903677303 0.7004625525370483 0.049875318558699866
lowerneck -7.459741685623679 -3.2836878564862215 1.2316422378597034
upperneck -5.318571829615085 -4.277068979727717 1.8112523878143727
head -0.5094396156306367 -2.2054690246288406 0.26464485682524186
rclavicle -3.7747395166074905E-16 1.427921394823271E-17
rhumerus 12.000238581264469 0.4432150963103929 -39.535484923276535
rradius 118.55071270444
rwrist -30.703584777268937
rhand -11.698265563683412 -36.417870623590844
rfingers 7.125019999999963
rthumb 14.386167390253485 -65.83780735785771
lclavicle -4.2354919231068166E-16 -4.750887063852441E-16
lhumerus -43.193224342434625 -0.39569793080179005 83.12788258586214
lradius 45.06721172741557
lwrist 2.0236880356585956
lhand -15.752867732985983 -11.676072276086948
lfingers 7.125019999999929
lthumb 10.397414604352004 17.441873170859076
rfemur -2.8310439157200724 1.053871220116585 5.661760123689236
rtibia 8.475717631426937
rfoot -1.596473763917802 -1.3820680286121263
rtoes 0.8119132836592922
lfemur -6.532464256208586 -3.5575577184448695 -12.274385036874042
ltibia 27.443305666414997
lfoot -19.195571775824785 7.908294697029312
ltoes -43.09871874081233
